<svg xmlns="http://www.w3.org/2000/svg" width="600" height="500" viewBox="0 0 600 500">
  <defs>
    <linearGradient id="grad3" x1="0%" y1="0%" x2="100%" y2="100%">
      <stop offset="0%" style="stop-color:#F0F4F4;stop-opacity:1" />
      <stop offset="100%" style="stop-color:#FAFAFA;stop-opacity:1" />
    </linearGradient>
  </defs>
  <rect width="600" height="500" fill="url(#grad3)"/>
  <rect x="50" y="50" width="500" height="400" rx="20" fill="#E2EAEB" stroke="#0A5C61" stroke-width="2"/>
  <g transform="translate(300, 150)">
    <circle cx="-80" cy="0" r="35" fill="#0A5C61" opacity="0.8"/>
    <circle cx="0" cy="-50" r="40" fill="#12898F" opacity="0.8"/>
    <circle cx="80" cy="0" r="35" fill="#0A5C61" opacity="0.8"/>
    <path d="M -80 40 L -80 80 M -80 60 L -60 75 M -80 60 L -100 75" stroke="#0A5C61" stroke-width="3" fill="none" stroke-linecap="round"/>
    <path d="M 0 -10 L 0 40 M 0 15 L -25 35 M 0 15 L 25 35" stroke="#12898F" stroke-width="3" fill="none" stroke-linecap="round"/>
    <path d="M 80 40 L 80 80 M 80 60 L 60 75 M 80 60 L 100 75" stroke="#0A5C61" stroke-width="3" fill="none" stroke-linecap="round"/>
  </g>
  <text x="300" y="450" font-family="Inter, sans-serif" font-size="14" fill="#4A6366" text-anchor="middle" font-weight="500">Healthcare Team Collaboration</text>
</svg>